<svg width="370" height="200" viewBox="0 0 370 200" fill="none" xmlns="http://www.w3.org/2000/svg">
<rect width="370" height="200" rx="14" fill="white"/>
<mask id="mask0_3395_831" style="mask-type:alpha" maskUnits="userSpaceOnUse" x="0" y="0" width="370" height="200">
<rect width="370" height="200" rx="12" fill="#ED713C"/>
</mask>
<g mask="url(#mask0_3395_831)">
<path d="M332.737 216.516C329.896 218.424 326.992 218.798 324.176 216.604C321.371 214.422 321.111 211.455 322.19 207.802C318.518 208.6 315.205 208.575 313.021 205.284C311.16 202.467 311.606 199.699 313.443 197.044C313.666 196.819 313.902 196.595 314.125 196.371C315.44 195.423 316.967 194.501 318.493 194.812C321.285 195.373 320.776 194.077 320.925 192.095C321.136 189.364 320.838 188.242 317.798 188.679C316.694 188.841 315.416 187.844 314.212 187.382C313.889 187.058 313.567 186.734 313.244 186.41C311.631 183.692 311.135 180.912 313.095 178.17C315.267 175.115 318.344 174.854 322.116 175.876C321.161 172.136 321.297 168.857 324.573 166.688C327.365 164.831 330.119 165.304 332.75 167.137C332.973 167.361 333.196 167.598 333.42 167.822C333.953 169.144 335.12 170.578 334.921 171.787C334.375 175.028 335.914 174.442 338.147 174.629C340.84 174.854 341.063 174.118 340.989 171.812C340.951 170.503 341.969 169.169 342.515 167.847C342.751 167.598 342.986 167.361 343.222 167.112C346.039 165.117 348.942 164.781 351.771 166.95C354.588 169.107 354.923 172.061 353.831 175.689C357.417 175.065 360.767 174.916 362.951 178.232C364.812 181.049 364.39 183.804 362.616 186.497C362.343 186.771 362.07 187.033 361.797 187.307C360.457 187.831 359.055 188.916 357.802 188.766C355.072 188.454 355.097 189.427 355.134 191.758C355.171 194.014 355.035 195.099 357.802 194.787C359.067 194.65 360.457 195.735 361.797 196.258C362.07 196.533 362.355 196.807 362.628 197.094C364.514 199.924 364.887 202.841 362.715 205.658C360.569 208.451 357.665 208.899 354.03 207.703C354.774 211.467 354.65 214.908 351.176 217.077C348.52 218.735 345.877 218.287 343.346 216.653C342.999 216.304 342.664 215.968 342.316 215.619C340.976 213.624 340.629 211.405 341.001 209.086C337.192 208.65 334.028 208.762 334.412 213.836C334.462 214.447 333.792 215.108 333.445 215.743C333.234 216.005 332.985 216.267 332.737 216.516ZM350.99 204.835C348.806 203.501 353.397 199.313 348.52 199.3C346.026 199.288 345.456 200.148 345.468 202.454C345.505 207.304 349.612 202.716 350.99 204.835ZM325.119 204.898C326.459 203.053 331.335 207.416 330.491 201.444C329.821 196.695 326.806 200.435 325.156 199.213C325.826 201.183 325.106 202.841 325.119 204.898ZM351.151 178.83C345.381 179.429 345.518 179.454 345.356 180.8C344.786 185.475 348.297 183.879 351.039 184.615C350.22 182.446 350.853 180.675 351.151 178.83ZM325.069 178.581C325.392 180.688 325.59 182.508 325.268 184.54C326.856 183.106 330.045 186.647 330.591 181.934C331.248 176.113 326.36 180.738 325.069 178.581ZM335.777 191.434C335.876 192.68 334.946 194.438 337.465 193.952C338.743 193.703 340.393 194.613 340.17 191.945C340.021 190.137 339.934 189.427 337.862 189.564C336.311 189.651 335.194 189.502 335.777 191.434Z" fill="#0A1027" fill-opacity="0.07"/>
<path d="M333.432 167.833C333.209 167.609 332.985 167.372 332.762 167.148C332.725 166.861 332.762 166.537 332.65 166.287C331.186 163.034 331.136 159.955 334.139 157.586C336.584 155.654 339.338 155.641 341.807 157.561C344.835 159.917 344.785 162.996 343.358 166.25C343.247 166.512 343.272 166.824 343.234 167.11C342.999 167.36 342.763 167.596 342.527 167.846C339.487 169.08 336.46 169.043 333.432 167.833Z" fill="#0A1027" fill-opacity="0.07"/>
<path d="M362.653 197.092C362.38 196.818 362.095 196.544 361.822 196.257C360.544 193.278 360.569 190.286 361.822 187.306C362.095 187.032 362.368 186.77 362.641 186.496C363.609 186.197 364.552 185.823 365.544 185.623C368.348 185.087 370.768 185.773 372.381 188.279C373.858 190.572 373.858 192.978 372.393 195.272C370.793 197.79 368.373 198.476 365.569 197.94C364.564 197.765 363.621 197.391 362.653 197.092Z" fill="#0A1027" fill-opacity="0.07"/>
<path d="M314.138 196.382C313.914 196.606 313.678 196.831 313.455 197.055C309.906 198.19 306.345 199.212 303.702 195.372C302.164 193.141 302.127 190.697 303.603 188.404C306.122 184.477 309.696 185.349 313.281 186.434C313.604 186.758 313.927 187.082 314.249 187.406C315.403 190.398 315.292 193.39 314.138 196.382Z" fill="#0A1027" fill-opacity="0.07"/>
<path d="M366.76 178.38C363.472 178.168 360.742 174.989 361.065 171.748C361.387 168.606 364.353 166.026 367.43 166.225C370.718 166.437 373.46 169.616 373.125 172.857C372.803 175.999 369.837 178.567 366.76 178.38Z" fill="#0A1027" fill-opacity="0.07"/>
<path d="M308.665 166.25C311.73 166.126 314.634 168.744 314.882 171.873C315.142 175.102 312.363 178.218 309.087 178.355C305.849 178.48 302.858 175.575 302.858 172.297C302.858 169.192 305.563 166.375 308.665 166.25Z" fill="#0A1027" fill-opacity="0.07"/>
<path d="M363.447 162.572C363.434 165.876 360.419 168.78 357.143 168.631C354.017 168.481 351.324 165.651 351.336 162.522C351.349 159.219 354.376 156.314 357.64 156.464C360.767 156.613 363.459 159.456 363.447 162.572Z" fill="#0A1027" fill-opacity="0.07"/>
<path d="M318.604 156.502C321.868 156.514 324.746 159.544 324.598 162.798C324.449 165.914 321.644 168.619 318.555 168.594C315.291 168.582 312.413 165.553 312.562 162.299C312.711 159.182 315.527 156.49 318.604 156.502Z" fill="#0A1027" fill-opacity="0.07"/>
<path d="M304.744 201.48C304.484 204.921 302.746 207.028 299.235 207.053C295.761 207.078 293.726 205.108 293.689 201.605C293.651 198.114 295.624 196.082 299.111 196.02C302.61 195.983 304.409 198.04 304.744 201.48Z" fill="#0A1027" fill-opacity="0.07"/>
<path d="M299.396 176.448C302.808 176.872 304.794 178.767 304.657 182.258C304.521 185.761 302.411 187.668 298.962 187.556C295.475 187.431 293.577 185.312 293.688 181.834C293.8 178.306 295.971 176.635 299.396 176.448Z" fill="#0A1027" fill-opacity="0.07"/>
<path d="M333.891 152.662C333.531 156.327 331.707 158.384 328.208 158.321C324.721 158.259 322.736 156.202 322.773 152.712C322.823 149.208 324.87 147.226 328.357 147.251C331.905 147.276 333.568 149.47 333.891 152.662Z" fill="#0A1027" fill-opacity="0.07"/>
<path d="M353.31 152.863C352.988 156.291 351.188 158.26 347.727 158.385C344.426 158.497 341.87 155.83 342.131 152.513C342.416 149.06 344.438 147.153 347.863 147.24C351.337 147.327 353.062 149.459 353.31 152.863Z" fill="#0A1027" fill-opacity="0.07"/>
<path d="M294.569 191.757C294.073 194.911 292.41 196.88 289.358 196.793C286.33 196.706 284.419 194.724 284.494 191.682C284.568 188.64 286.541 186.733 289.581 186.795C292.646 186.857 294.172 188.939 294.569 191.757Z" fill="#0A1027" fill-opacity="0.07"/>
<path d="M337.911 137.927C340.901 138.276 342.924 139.884 342.986 142.963C343.035 146.03 341.125 148.012 338.085 148.074C335.032 148.137 333.059 146.204 332.985 143.15C332.91 140.071 334.896 138.4 337.911 137.927Z" fill="#0A1027" fill-opacity="0.07"/>
<path d="M313.951 152.725C313.616 155.704 312.028 157.736 308.988 157.798C305.948 157.861 303.975 155.941 303.913 152.912C303.839 149.87 305.75 147.888 308.777 147.8C311.817 147.726 313.48 149.695 313.951 152.725Z" fill="#0A1027" fill-opacity="0.07"/>
<path d="M367.02 147.639C370.023 148 372.07 149.608 372.132 152.688C372.194 155.767 370.259 157.774 367.206 157.836C364.142 157.911 362.156 155.954 362.069 152.899C361.995 149.808 363.993 148.137 367.02 147.639Z" fill="#0A1027" fill-opacity="0.07"/>
<path d="M304.26 162.399C303.913 165.453 302.325 167.485 299.285 167.547C296.245 167.61 294.272 165.69 294.21 162.661C294.135 159.606 296.058 157.637 299.074 157.562C302.126 157.475 303.764 159.469 304.26 162.399Z" fill="#0A1027" fill-opacity="0.07"/>
<path d="M357.392 138.388C360.333 138.612 362.045 140.158 361.971 143.162C361.909 146.179 360.134 147.75 357.181 147.663C354.427 147.575 352.851 145.942 352.814 143.175C352.764 140.158 354.451 138.612 357.392 138.388Z" fill="#0A1027" fill-opacity="0.07"/>
<path d="M289.768 176.947C286.653 176.76 284.904 175.301 284.904 172.297C284.916 169.305 286.604 167.684 289.569 167.709C292.311 167.734 293.912 169.305 294.024 172.073C294.16 175.089 292.473 176.598 289.768 176.947Z" fill="#0A1027" fill-opacity="0.07"/>
<path d="M323.195 143.238C322.86 146.18 321.235 147.788 318.282 147.626C315.291 147.451 313.827 145.581 314.026 142.652C314.212 139.897 315.912 138.413 318.654 138.463C321.657 138.525 323.059 140.308 323.195 143.238Z" fill="#0A1027" fill-opacity="0.07"/>
<path d="M279.779 205.62C277.298 205.358 275.709 203.987 275.771 201.406C275.821 199.05 277.335 197.542 279.68 197.529C282.248 197.517 283.812 199.1 283.75 201.681C283.712 204.037 282.186 205.346 279.779 205.62Z" fill="#0A1027" fill-opacity="0.07"/>
<path d="M347.564 129.176C349.822 129.325 351.473 130.497 351.696 132.866C351.944 135.471 350.443 137.192 347.899 137.329C345.331 137.466 343.693 135.87 343.656 133.277C343.631 130.921 345.145 129.562 347.564 129.176Z" fill="#0A1027" fill-opacity="0.07"/>
<path d="M279.655 177.969C281.888 178.106 283.513 179.253 283.737 181.622C283.973 184.202 282.508 185.91 279.977 186.048C277.421 186.185 275.808 184.614 275.771 182.033C275.746 179.677 277.223 178.331 279.655 177.969Z" fill="#0A1027" fill-opacity="0.07"/>
<path d="M332.39 133.227C332.204 135.521 330.988 137.154 328.643 137.341C326.062 137.541 324.362 136.007 324.263 133.439C324.176 130.859 325.789 129.238 328.37 129.251C330.727 129.263 332.042 130.809 332.39 133.227Z" fill="#0A1027" fill-opacity="0.07"/>
<path d="M302.821 143.137C302.598 145.344 301.457 146.678 299.211 146.665C296.741 146.653 295.451 145.194 295.6 142.763C295.736 140.532 297.151 139.347 299.372 139.447C301.605 139.534 302.685 140.918 302.821 143.137Z" fill="#0A1027" fill-opacity="0.07"/>
<path d="M370.557 133.177C370.371 135.197 369.316 136.593 367.318 136.692C365.085 136.805 363.683 135.446 363.707 133.202C363.732 131.182 365.06 129.911 367.07 129.898C369.117 129.873 370.209 131.207 370.557 133.177Z" fill="#0A1027" fill-opacity="0.07"/>
<path d="M312.313 133.314C312.015 135.284 310.961 136.655 308.963 136.668C306.767 136.68 305.389 135.271 305.526 133.065C305.638 131.107 306.99 129.836 309 129.923C310.998 129.998 312.04 131.344 312.313 133.314Z" fill="#0A1027" fill-opacity="0.07"/>
<path d="M289.607 156.49C287.175 156.228 285.847 155.068 285.872 152.812C285.897 150.331 287.361 149.047 289.781 149.197C292.002 149.346 293.155 150.768 293.069 152.999C292.969 155.293 291.505 156.278 289.607 156.49Z" fill="#0A1027" fill-opacity="0.07"/>
<path d="M283.166 162.648C282.794 164.643 281.677 165.976 279.642 165.889C277.644 165.802 276.354 164.468 276.428 162.436C276.503 160.429 277.843 159.132 279.865 159.207C281.9 159.282 282.943 160.653 283.166 162.648Z" fill="#0A1027" fill-opacity="0.07"/>
<path d="M321.185 123.565C320.987 125.061 320.18 126.083 318.666 126.096C316.929 126.108 315.912 125.024 316.048 123.291C316.16 121.807 317.19 120.885 318.716 120.972C320.23 121.072 321.012 122.069 321.185 123.565Z" fill="#0A1027" fill-opacity="0.07"/>
<path d="M340.902 123.553C340.654 125.66 339.487 126.607 337.614 126.42C335.914 126.246 335.008 125.099 335.12 123.391C335.244 121.409 336.484 120.499 338.37 120.673C340.083 120.835 340.852 122.02 340.902 123.553Z" fill="#0A1027" fill-opacity="0.07"/>
<path d="M360.059 123.453C359.749 125.323 358.781 126.321 357.081 126.134C355.63 125.971 354.711 124.974 354.811 123.453C354.922 121.733 356.014 120.798 357.702 120.96C359.203 121.097 359.873 122.207 360.059 123.453Z" fill="#0A1027" fill-opacity="0.07"/>
<path d="M272.669 172.297C272.483 173.793 271.689 174.828 270.175 174.853C268.438 174.89 267.408 173.818 267.52 172.085C267.619 170.602 268.624 169.667 270.163 169.741C271.689 169.804 272.471 170.801 272.669 172.297Z" fill="#0A1027" fill-opacity="0.07"/>
<path d="M272.93 191.807C272.806 193.639 271.826 194.711 269.902 194.637C268.203 194.574 267.235 193.552 267.222 191.857C267.21 189.924 268.302 188.89 270.213 188.952C271.925 189.002 272.794 190.049 272.93 191.807Z" fill="#0A1027" fill-opacity="0.07"/>
<path d="M141.037 244.69L140.122 243.987C152.298 227.925 158.736 208.736 158.736 188.488C158.736 157.121 143.029 128.263 116.718 111.292L117.342 110.319C143.987 127.495 159.888 156.721 159.888 188.488C159.888 208.985 153.364 228.422 141.037 244.69Z" fill="#0A1027" fill-opacity="0.07"/>
<path d="M67.5085 281.303C16.5652 281.303 -24.8828 239.661 -24.8828 188.478C-24.8828 137.295 16.5652 95.6523 67.5085 95.6523V96.8097C17.2003 96.8097 -23.7201 137.933 -23.7201 188.467C-23.7201 239.012 17.2111 280.124 67.5085 280.124C82.7096 280.124 97.7601 276.295 111.023 269.048L111.572 270.065C98.1369 277.431 82.8926 281.303 67.5085 281.303Z" fill="#0A1027" fill-opacity="0.07"/>
<path d="M23.7895 259.93C-1.10085 244.528 -15.9575 217.811 -15.9575 188.478H-13.6429C-13.6429 217 0.804667 242.97 25.006 257.951L23.7895 259.93Z" fill="#0A1027" fill-opacity="0.07"/>
<path d="M67.5086 272.346C58.3577 272.346 49.3684 270.865 40.7773 267.955L41.5202 265.759C49.8744 268.593 58.6161 270.032 67.5193 270.032C109.323 270.032 144.042 238.567 148.251 196.838L150.555 197.076C146.206 239.973 110.507 272.346 67.5086 272.346Z" fill="#0A1027" fill-opacity="0.07"/>
<path d="M147.627 175.453C144.602 156.535 134.934 139.197 120.39 126.639C105.694 113.941 86.9082 106.953 67.5084 106.953C51.8443 106.953 36.6431 111.442 23.5413 119.944C8.2755 129.851 -3.37299 144.778 -9.26183 161.976L-11.4473 161.219C-5.39694 143.534 6.58529 128.186 22.2817 117.997C35.7603 109.257 51.3922 104.639 67.4976 104.639C87.4573 104.639 106.771 111.832 121.886 124.887C136.84 137.801 146.787 155.638 149.898 175.096L147.627 175.453Z" fill="#0A1027" fill-opacity="0.07"/>
<path d="M67.5081 249.048C34.2637 249.048 7.22021 221.877 7.22021 188.476C7.22021 174.956 11.5588 162.171 19.7515 151.506L21.5817 152.923C13.7012 163.188 9.53483 175.475 9.53483 188.476C9.53483 220.59 35.5448 246.722 67.5081 246.722C73.1817 246.722 78.7906 245.9 84.1627 244.278L84.8302 246.506C79.232 248.204 73.397 249.048 67.5081 249.048Z" fill="#0A1027" fill-opacity="0.07"/>
<path d="M108.225 233.148L106.664 231.439C118.624 220.428 125.482 204.777 125.482 188.488C125.482 177.023 122.166 165.925 115.901 156.396L117.828 155.12C124.352 165.027 127.797 176.568 127.797 188.499C127.786 205.426 120.659 221.705 108.225 233.148Z" fill="#0A1027" fill-opacity="0.07"/>
<path d="M103.573 142.876C93.227 134.601 80.7495 130.232 67.5077 130.232C55.8915 130.232 44.6844 133.671 35.0922 140.183L33.8003 138.257C43.7693 131.486 55.4286 127.917 67.5077 127.917C81.2878 127.917 94.2605 132.46 105.015 141.07L103.573 142.876Z" fill="#0A1027" fill-opacity="0.07"/>
<path d="M32.2082 223.967C22.7775 214.492 17.5776 201.891 17.5776 188.49C17.5776 160.832 39.9703 138.324 67.509 138.324C95.0369 138.324 117.44 160.832 117.44 188.49H116.288C116.288 161.471 94.4124 139.492 67.5197 139.492C40.627 139.492 18.7511 161.471 18.7511 188.49C18.7511 201.577 23.8217 213.886 33.0479 223.145L32.2082 223.967Z" fill="#0A1027" fill-opacity="0.07"/>
<path d="M67.5078 219.683C50.3796 219.683 36.4487 205.686 36.4487 188.478C36.4487 171.269 50.3796 157.272 67.5078 157.272V159.598C51.6607 159.598 38.7634 172.556 38.7634 188.478C38.7634 204.399 51.6607 217.357 67.5078 217.357C83.3549 217.357 96.2522 204.399 96.2522 188.478H98.5669C98.5561 205.686 84.6253 219.683 67.5078 219.683Z" fill="#0A1027" fill-opacity="0.07"/>
<path d="M67.5088 203.988C58.9931 203.988 52.0708 197.033 52.0708 188.477H53.2227C53.2227 196.384 59.6283 202.82 67.498 202.82C75.3678 202.82 81.7734 196.384 81.7734 188.477C81.7734 180.571 75.3678 174.135 67.498 174.135C63.1272 174.135 59.0577 176.104 56.3232 179.543L55.4189 178.818C58.3687 175.098 62.7719 172.967 67.498 172.967C76.0137 172.967 82.9361 179.922 82.9361 188.477C82.9361 197.033 76.0137 203.988 67.5088 203.988Z" fill="#0A1027" fill-opacity="0.07"/>
<path d="M288.841 22.875L288 22.2287C299.193 7.4633 305.111 -10.1757 305.111 -28.789C305.111 -57.6239 290.672 -84.1519 266.485 -99.7526L267.059 -100.647C291.553 -84.8579 306.17 -57.9918 306.17 -28.789C306.17 -9.94697 300.173 7.92068 288.841 22.875Z" fill="#0A1027" fill-opacity="0.07"/>
<path d="M221.248 56.5321C174.418 56.5321 136.316 18.2513 136.316 -28.7992C136.316 -75.8497 174.418 -114.13 221.248 -114.13V-113.066C175.001 -113.066 137.385 -75.263 137.385 -28.8091C137.385 17.6547 175.011 55.4483 221.248 55.4483C235.222 55.4483 249.057 51.9284 261.25 45.2666L261.754 46.2012C249.404 52.9724 235.39 56.5321 221.248 56.5321Z" fill="#0A1027" fill-opacity="0.07"/>
<path d="M181.059 36.8858C158.178 22.727 144.521 -1.83234 144.521 -28.7979H146.649C146.649 -2.57807 159.93 21.2952 182.177 35.0663L181.059 36.8858Z" fill="#0A1027" fill-opacity="0.07"/>
<path d="M221.249 48.2996C212.837 48.2996 204.573 46.9374 196.676 44.2627L197.359 42.2443C205.038 44.8493 213.074 46.1717 221.259 46.1717C259.687 46.1717 291.603 17.2475 295.473 -21.1128L297.591 -20.894C293.592 18.5401 260.776 48.2996 221.249 48.2996Z" fill="#0A1027" fill-opacity="0.07"/>
<path d="M221.248 26.8822C190.688 26.8822 165.828 1.90524 165.828 -28.7989C165.828 -41.2277 169.816 -52.9803 177.347 -62.7842L179.03 -61.4816C171.785 -52.0457 167.955 -40.7504 167.955 -28.7989C167.955 0.722027 191.865 24.7444 221.248 24.7444C226.464 24.7444 231.62 23.9887 236.558 22.4973L237.172 24.5455C232.025 26.1066 226.662 26.8822 221.248 26.8822Z" fill="#0A1027" fill-opacity="0.07"/>
<path d="M258.677 12.2652L257.242 10.6942C268.237 0.572193 274.541 -13.8154 274.541 -28.7896C274.541 -39.3292 271.493 -49.5308 265.733 -58.2906L267.504 -59.4639C273.502 -50.356 276.669 -39.7468 276.669 -28.7797C276.659 -13.2188 270.107 1.74549 258.677 12.2652Z" fill="#0A1027" fill-opacity="0.07"/>
<path d="M221.248 17.3159C213.786 17.3159 206.373 15.4765 199.822 11.9964L200.317 11.0518C206.72 14.4524 213.954 16.252 221.238 16.252C241.357 16.252 259.132 2.65989 264.466 -16.8086L265.485 -16.5202C260.042 3.40562 241.842 17.3159 221.248 17.3159Z" fill="#0A1027" fill-opacity="0.07"/>
<path d="M188.797 3.8223C180.128 -4.88781 175.348 -16.4714 175.348 -28.7909C175.348 -54.2153 195.932 -74.9067 221.248 -74.9067C246.553 -74.9067 267.148 -54.2153 267.148 -28.7909H266.089C266.089 -53.6286 245.979 -73.8329 221.258 -73.8329C196.536 -73.8329 176.426 -53.6286 176.426 -28.7909C176.426 -16.7598 181.088 -5.4446 189.569 3.06665L188.797 3.8223Z" fill="#0A1027" fill-opacity="0.07"/>
</g>
<path d="M27.6315 177.255V172.323H28.7355C30.0435 172.323 31.1115 173.091 31.1115 174.795C31.1115 176.499 30.0435 177.255 28.7355 177.255H27.6315ZM28.8075 179.043C31.3755 179.043 33.0915 177.423 33.0915 174.795C33.0915 172.167 31.3755 170.535 28.8195 170.535H25.7355V179.043H28.8075ZM35.9186 174.783C35.9186 173.007 37.1906 172.203 38.3786 172.203C39.5546 172.203 40.8266 173.007 40.8266 174.783C40.8266 176.559 39.5546 177.351 38.3786 177.351C37.1906 177.351 35.9186 176.559 35.9186 174.783ZM33.9506 174.795C33.9506 177.483 35.9786 179.223 38.3786 179.223C40.7666 179.223 42.7946 177.483 42.7946 174.795C42.7946 172.095 40.7666 170.355 38.3786 170.355C35.9786 170.355 33.9506 172.095 33.9506 174.795ZM49.7137 179.043V177.231H46.0417V170.535H44.1457V179.043H49.7137ZM56.666 179.043H58.73L55.562 170.535H53.366L50.162 179.043H52.154L52.766 177.315H56.054L56.666 179.043ZM54.434 172.647L55.454 175.587H53.39L54.434 172.647ZM61.6865 174.351V172.179H62.7905C63.5105 172.179 64.0025 172.587 64.0025 173.271C64.0025 173.931 63.5105 174.351 62.7905 174.351H61.6865ZM62.9825 175.983C64.7105 175.983 65.8985 174.867 65.8985 173.259C65.8985 171.675 64.7105 170.535 62.9825 170.535H59.7785V179.043H61.6745V175.983H62.9825ZM68.6139 174.783C68.6139 173.007 69.8859 172.203 71.0739 172.203C72.2499 172.203 73.5219 173.007 73.5219 174.783C73.5219 176.559 72.2499 177.351 71.0739 177.351C69.8859 177.351 68.6139 176.559 68.6139 174.783ZM66.6459 174.795C66.6459 177.483 68.6739 179.223 71.0739 179.223C73.4619 179.223 75.4899 177.483 75.4899 174.795C75.4899 172.095 73.4619 170.355 71.0739 170.355C68.6739 170.355 66.6459 172.095 66.6459 174.795ZM85.1941 179.043V177.243H81.6901V175.611H84.8581V173.943H81.6901V172.323H85.1821V170.535H79.7941V179.043H85.1941ZM96.4262 179.043V170.535H93.8222L91.6022 176.283L89.2622 170.535H86.7902V179.043H88.5902V173.475L90.8102 179.043H92.3462L94.5662 173.403V179.043H96.4262ZM103.675 179.043V177.243H100.171V175.611H103.339V173.943H100.171V172.323H103.663V170.535H98.2746V179.043H103.675ZM110.419 179.043H112.783L109.459 174.219L112.771 170.535H110.275L107.167 174.111V170.535H105.271V179.043H107.167V176.763L108.127 175.695L110.419 179.043ZM119.514 179.043H121.578L118.41 170.535H116.214L113.01 179.043H115.002L115.614 177.315H118.902L119.514 179.043ZM117.282 172.647L118.302 175.587H116.238L117.282 172.647Z" fill="#0A1027"/>
<path d="M176.745 175.155C176.745 174.531 176.817 173.919 177.033 173.463C177.249 173.031 177.597 172.743 178.173 172.743C178.761 172.743 179.097 173.031 179.313 173.463C179.541 173.919 179.613 174.531 179.613 175.155C179.613 175.779 179.541 176.391 179.313 176.847C179.097 177.279 178.761 177.567 178.173 177.567C177.597 177.567 177.249 177.279 177.033 176.847C176.817 176.391 176.745 175.779 176.745 175.155ZM174.849 175.155C174.849 176.115 174.993 177.087 175.533 177.903C176.049 178.671 176.913 179.235 178.173 179.235C179.445 179.235 180.309 178.671 180.825 177.903C181.365 177.087 181.509 176.115 181.509 175.155C181.509 174.195 181.365 173.223 180.825 172.407C180.309 171.627 179.445 171.075 178.173 171.075C176.913 171.075 176.049 171.627 175.533 172.407C174.993 173.223 174.849 174.195 174.849 175.155ZM185.928 179.043V171.255H184.308C184.176 172.047 183.348 172.707 182.184 172.719V173.979H184.044V179.043H185.928ZM192.72 170.367H191.088L186.78 179.211H188.4L192.72 170.367ZM194.474 174.375C194.426 174.219 194.402 174.051 194.402 173.895C194.402 173.247 194.762 172.743 195.494 172.743C196.19 172.743 196.538 173.175 196.538 173.667C196.538 174.183 196.298 174.507 195.686 174.867L194.414 175.611C192.986 176.439 192.578 177.615 192.578 179.043H198.494V177.459H194.894C195.002 177.231 195.194 177.075 195.422 176.931L196.898 176.055C197.894 175.467 198.434 174.639 198.434 173.631C198.434 172.239 197.33 171.075 195.542 171.075C193.67 171.075 192.626 172.323 192.626 173.715C192.626 173.955 192.662 174.267 192.698 174.363L194.474 174.375ZM201.382 175.659C201.562 175.563 201.826 175.479 202.078 175.479C202.63 175.479 203.206 175.791 203.206 176.535C203.206 177.111 202.774 177.603 202.042 177.603C201.31 177.603 200.818 177.063 200.794 176.379L198.97 176.715C199.09 178.047 200.242 179.211 202.054 179.211C203.974 179.211 205.114 177.963 205.114 176.583C205.114 175.251 204.13 174.291 202.93 174.207L204.85 172.719V171.255H199.234V172.839H202.486L200.566 174.411L201.382 175.659Z" fill="#0A1027"/>
<path d="M280.308 174.351V172.179H281.412C282.132 172.179 282.624 172.587 282.624 173.271C282.624 173.931 282.132 174.351 281.412 174.351H280.308ZM281.604 175.983C283.332 175.983 284.52 174.867 284.52 173.259C284.52 171.675 283.332 170.535 281.604 170.535H278.4V179.043H280.296V175.983H281.604ZM291.1 179.043V177.243H287.596V175.611H290.764V173.943H287.596V172.323H291.088V170.535H285.7V179.043H291.1ZM296.788 179.043H298.876L297.148 175.599C298.192 175.227 298.828 174.351 298.828 173.199C298.828 171.687 297.748 170.535 296.068 170.535H292.696V179.043H294.592V175.875H295.264L296.788 179.043ZM294.592 174.243V172.179H295.708C296.488 172.179 296.908 172.575 296.908 173.211C296.908 173.811 296.488 174.243 295.708 174.243H294.592ZM306.088 172.623C305.908 171.627 305.104 170.355 302.98 170.355C301.348 170.355 299.932 171.483 299.932 173.091C299.932 174.351 300.808 175.311 302.248 175.587L303.412 175.803C303.976 175.911 304.324 176.223 304.324 176.655C304.324 177.183 303.868 177.543 303.124 177.543C301.96 177.543 301.432 176.859 301.36 176.079L299.62 176.499C299.74 177.699 300.748 179.223 303.1 179.223C305.128 179.223 306.244 177.867 306.244 176.535C306.244 175.323 305.404 174.279 303.784 173.979L302.644 173.763C302.056 173.655 301.804 173.355 301.804 172.947C301.804 172.479 302.26 172.035 302.968 172.035C304 172.035 304.324 172.707 304.384 173.103L306.088 172.623ZM309.008 174.783C309.008 173.007 310.28 172.203 311.468 172.203C312.644 172.203 313.916 173.007 313.916 174.783C313.916 176.559 312.644 177.351 311.468 177.351C310.28 177.351 309.008 176.559 309.008 174.783ZM307.04 174.795C307.04 177.483 309.068 179.223 311.468 179.223C313.856 179.223 315.884 177.483 315.884 174.795C315.884 172.095 313.856 170.355 311.468 170.355C309.068 170.355 307.04 172.095 307.04 174.795ZM324.628 179.043V170.535H322.732V175.707L319.54 170.535H317.236V179.043H319.12V173.451L322.624 179.043H324.628ZM332.158 179.043H334.222L331.054 170.535H328.858L325.654 179.043H327.646L328.258 177.315H331.546L332.158 179.043ZM329.926 172.647L330.946 175.587H328.882L329.926 172.647ZM340.839 179.043V177.231H337.167V170.535H335.271V179.043H340.839Z" fill="#0A1027"/>
<path d="M28.7815 158.976C30.4115 158.976 31.5315 158.026 31.9115 156.696L31.0415 156.376C30.7515 157.346 29.9915 158.076 28.7815 158.076C27.4915 158.076 26.2615 157.126 26.2615 155.276C26.2615 153.426 27.4915 152.486 28.7815 152.486C29.9415 152.486 30.7215 153.086 30.9915 154.156L31.9015 153.836C31.5415 152.466 30.4015 151.586 28.7815 151.586C27.0215 151.586 25.2615 152.906 25.2615 155.276C25.2615 157.646 26.9515 158.976 28.7815 158.976ZM32.6162 157.536C32.6162 158.296 33.2462 158.976 34.2262 158.976C35.0862 158.976 35.5662 158.516 35.7762 158.176C35.7762 158.526 35.8062 158.706 35.8262 158.826H36.7462C36.7262 158.706 36.6862 158.456 36.6862 158.036V155.626C36.6862 154.686 36.1262 153.866 34.6862 153.866C33.6462 153.866 32.8162 154.506 32.7162 155.426L33.6162 155.636C33.6762 155.076 34.0462 154.666 34.7062 154.666C35.4362 154.666 35.7462 155.056 35.7462 155.526C35.7462 155.696 35.6662 155.846 35.3762 155.886L34.0762 156.076C33.2462 156.196 32.6162 156.676 32.6162 157.536ZM34.3562 158.186C33.8762 158.186 33.5762 157.846 33.5762 157.486C33.5762 157.056 33.8762 156.826 34.2762 156.766L35.7462 156.546V156.766C35.7462 157.816 35.1262 158.186 34.3562 158.186ZM40.8206 153.966C40.7706 153.956 40.6406 153.936 40.5106 153.936C40.0206 153.936 39.4206 154.116 39.0706 154.856V154.016H38.1506V158.826H39.0906V156.416C39.0906 155.356 39.6206 154.936 40.4106 154.936C40.5406 154.936 40.6806 154.946 40.8206 154.966V153.966ZM42.3336 156.406C42.3336 155.416 42.8936 154.716 43.7536 154.716C44.6136 154.716 45.1336 155.396 45.1336 156.386C45.1336 157.376 44.6036 158.126 43.7436 158.126C42.8436 158.126 42.3336 157.396 42.3336 156.406ZM45.1436 158.176C45.1436 158.466 45.1736 158.716 45.1936 158.826H46.1036C46.0936 158.746 46.0536 158.396 46.0536 157.936V151.586H45.1236V154.696C44.9636 154.306 44.5036 153.886 43.6536 153.886C42.2936 153.886 41.3736 155.046 41.3736 156.406C41.3736 157.836 42.2436 158.956 43.6536 158.956C44.4036 158.956 44.9136 158.556 45.1436 158.096V158.176ZM51.0925 155.996C51.1125 155.286 51.4925 154.726 52.2125 154.726C53.0525 154.726 53.3325 155.266 53.3325 155.936V158.826H54.2725V155.776C54.2725 154.706 53.7025 153.876 52.5525 153.876C52.0025 153.876 51.4425 154.066 51.0925 154.576V151.586H50.1525V158.826H51.0925V155.996ZM57.8278 158.136C57.0278 158.136 56.3278 157.536 56.3278 156.416C56.3278 155.306 57.0278 154.706 57.8278 154.706C58.6278 154.706 59.3278 155.306 59.3278 156.416C59.3278 157.536 58.6278 158.136 57.8278 158.136ZM57.8278 153.866C56.3878 153.866 55.3678 154.956 55.3678 156.416C55.3678 157.886 56.3878 158.976 57.8278 158.976C59.2678 158.976 60.2878 157.886 60.2878 156.416C60.2878 154.956 59.2678 153.866 57.8278 153.866ZM62.4304 158.826V151.586H61.4904V158.826H62.4304ZM64.5895 156.406C64.5895 155.416 65.1495 154.716 66.0095 154.716C66.8695 154.716 67.3895 155.396 67.3895 156.386C67.3895 157.376 66.8595 158.126 65.9995 158.126C65.0995 158.126 64.5895 157.396 64.5895 156.406ZM67.3995 158.176C67.3995 158.466 67.4295 158.716 67.4495 158.826H68.3595C68.3495 158.746 68.3095 158.396 68.3095 157.936V151.586H67.3795V154.696C67.2195 154.306 66.7595 153.886 65.9095 153.886C64.5495 153.886 63.6295 155.046 63.6295 156.406C63.6295 157.836 64.4995 158.956 65.9095 158.956C66.6595 158.956 67.1695 158.556 67.3995 158.096V158.176ZM70.5184 155.926C70.5584 155.306 71.0384 154.696 71.8284 154.696C72.6784 154.696 73.1284 155.236 73.1484 155.926H70.5184ZM73.2884 157.176C73.1084 157.716 72.7184 158.146 71.9384 158.146C71.1284 158.146 70.5084 157.546 70.4884 156.686H74.1084C74.1184 156.626 74.1284 156.506 74.1284 156.386C74.1284 154.886 73.2984 153.866 71.8184 153.866C70.6084 153.866 69.5184 154.896 69.5184 156.406C69.5184 158.036 70.6484 158.976 71.9384 158.976C73.0584 158.976 73.8284 158.306 74.0984 157.456L73.2884 157.176ZM77.9983 153.966C77.9483 153.956 77.8183 153.936 77.6883 153.936C77.1983 153.936 76.5983 154.116 76.2483 154.856V154.016H75.3283V158.826H76.2683V156.416C76.2683 155.356 76.7983 154.936 77.5883 154.936C77.7183 154.936 77.8583 154.946 77.9983 154.966V153.966Z" fill="white" fill-opacity="0.5"/>
<path d="M179.615 158.826V157.916H176.285V155.746H179.305V154.826H176.285V152.646H179.615V151.736H175.305V158.826H179.615ZM180.315 158.826H181.435L182.655 157.056L183.895 158.826H185.025C184.735 158.436 183.545 156.766 183.255 156.376L184.965 154.016H183.855L182.695 155.706L181.515 154.016H180.375L182.105 156.376L180.315 158.826ZM186.857 160.726V158.176C187.117 158.606 187.677 158.956 188.417 158.956C189.827 158.956 190.657 157.846 190.657 156.416C190.657 155.016 189.887 153.906 188.447 153.906C187.667 153.906 187.097 154.286 186.837 154.766V154.016H185.927V160.726H186.857ZM189.697 156.416C189.697 157.406 189.147 158.116 188.277 158.116C187.417 158.116 186.847 157.406 186.847 156.416C186.847 155.456 187.417 154.736 188.277 154.736C189.157 154.736 189.697 155.456 189.697 156.416ZM192.785 158.826V154.016H191.855V158.826H192.785ZM191.645 152.196C191.645 152.566 191.945 152.866 192.315 152.866C192.695 152.866 192.995 152.566 192.995 152.196C192.995 151.816 192.695 151.516 192.315 151.516C191.945 151.516 191.645 151.816 191.645 152.196ZM197.054 153.966C197.004 153.956 196.874 153.936 196.744 153.936C196.254 153.936 195.654 154.116 195.304 154.856V154.016H194.384V158.826H195.324V156.416C195.324 155.356 195.854 154.936 196.644 154.936C196.774 154.936 196.914 154.946 197.054 154.966V153.966ZM199.403 160.836L202.533 154.016H201.523L200.083 157.336L198.583 154.016H197.503L199.573 158.296L198.373 160.836H199.403Z" fill="white" fill-opacity="0.5"/>
<path d="M29.6392 61.3911V48.4111H26.9392C26.7192 49.7311 25.3392 50.8311 23.3992 50.8511V52.9511H26.4992V61.3911H29.6392ZM31.8525 57.6911C32.0125 59.7311 33.9925 61.7111 36.8725 61.7111C40.1125 61.7111 41.9525 59.5511 41.9525 57.1311C41.9525 54.3311 40.1325 52.7911 37.4725 52.7911C36.7325 52.7911 35.7725 53.0511 35.2725 53.4911L35.7925 51.0511H41.1525V48.4111H33.6125L32.1525 55.1511C32.2125 55.1911 34.9125 56.0511 34.9725 56.0711C35.2925 55.6711 35.9125 55.2311 36.7925 55.2311C37.8325 55.2311 38.8125 55.8511 38.8125 57.1511C38.8125 58.3311 37.9325 59.0311 36.8725 59.0311C35.5925 59.0311 34.8325 58.0911 34.7725 57.0911L31.8525 57.6911ZM46.2677 54.9111C46.2677 53.8711 46.3877 52.8511 46.7477 52.0911C47.1077 51.3711 47.6877 50.8911 48.6477 50.8911C49.6277 50.8911 50.1877 51.3711 50.5477 52.0911C50.9277 52.8511 51.0477 53.8711 51.0477 54.9111C51.0477 55.9511 50.9277 56.9711 50.5477 57.7311C50.1877 58.4511 49.6277 58.9311 48.6477 58.9311C47.6877 58.9311 47.1077 58.4511 46.7477 57.7311C46.3877 56.9711 46.2677 55.9511 46.2677 54.9111ZM43.1077 54.9111C43.1077 56.5111 43.3477 58.1311 44.2477 59.4911C45.1077 60.7711 46.5477 61.7111 48.6477 61.7111C50.7677 61.7111 52.2077 60.7711 53.0677 59.4911C53.9677 58.1311 54.2077 56.5111 54.2077 54.9111C54.2077 53.3111 53.9677 51.6911 53.0677 50.3311C52.2077 49.0311 50.7677 48.1111 48.6477 48.1111C46.5477 48.1111 45.1077 49.0311 44.2477 50.3311C43.3477 51.6911 43.1077 53.3111 43.1077 54.9111ZM55.2655 59.6311C55.2655 60.6311 55.9655 61.4311 57.0655 61.4311C57.3055 61.4311 57.5255 61.3711 57.6255 61.2911C57.5855 62.4911 56.4855 63.2911 55.6255 63.4511V64.8711C57.2255 64.6911 59.4255 63.3711 59.4255 60.2711C59.4255 58.9511 58.6655 57.7711 57.2655 57.7711C56.1255 57.7711 55.2655 58.5711 55.2655 59.6311ZM64.0606 54.9111C64.0606 53.8711 64.1806 52.8511 64.5406 52.0911C64.9006 51.3711 65.4806 50.8911 66.4406 50.8911C67.4206 50.8911 67.9806 51.3711 68.3406 52.0911C68.7206 52.8511 68.8406 53.8711 68.8406 54.9111C68.8406 55.9511 68.7206 56.9711 68.3406 57.7311C67.9806 58.4511 67.4206 58.9311 66.4406 58.9311C65.4806 58.9311 64.9006 58.4511 64.5406 57.7311C64.1806 56.9711 64.0606 55.9511 64.0606 54.9111ZM60.9006 54.9111C60.9006 56.5111 61.1406 58.1311 62.0406 59.4911C62.9006 60.7711 64.3406 61.7111 66.4406 61.7111C68.5606 61.7111 70.0006 60.7711 70.8606 59.4911C71.7606 58.1311 72.0006 56.5111 72.0006 54.9111C72.0006 53.3111 71.7606 51.6911 70.8606 50.3311C70.0006 49.0311 68.5606 48.1111 66.4406 48.1111C64.3406 48.1111 62.9006 49.0311 62.0406 50.3311C61.1406 51.6911 60.9006 53.3111 60.9006 54.9111ZM76.5997 54.9111C76.5997 53.8711 76.7197 52.8511 77.0797 52.0911C77.4397 51.3711 78.0197 50.8911 78.9797 50.8911C79.9597 50.8911 80.5197 51.3711 80.8797 52.0911C81.2597 52.8511 81.3797 53.8711 81.3797 54.9111C81.3797 55.9511 81.2597 56.9711 80.8797 57.7311C80.5197 58.4511 79.9597 58.9311 78.9797 58.9311C78.0197 58.9311 77.4397 58.4511 77.0797 57.7311C76.7197 56.9711 76.5997 55.9511 76.5997 54.9111ZM73.4397 54.9111C73.4397 56.5111 73.6797 58.1311 74.5797 59.4911C75.4397 60.7711 76.8797 61.7111 78.9797 61.7111C81.0997 61.7111 82.5397 60.7711 83.3997 59.4911C84.2997 58.1311 84.5397 56.5111 84.5397 54.9111C84.5397 53.3111 84.2997 51.6911 83.3997 50.3311C82.5397 49.0311 81.0997 48.1111 78.9797 48.1111C76.8797 48.1111 75.4397 49.0311 74.5797 50.3311C73.6797 51.6911 73.4397 53.3111 73.4397 54.9111ZM89.1388 54.9111C89.1388 53.8711 89.2588 52.8511 89.6188 52.0911C89.9788 51.3711 90.5588 50.8911 91.5188 50.8911C92.4988 50.8911 93.0588 51.3711 93.4188 52.0911C93.7988 52.8511 93.9188 53.8711 93.9188 54.9111C93.9188 55.9511 93.7988 56.9711 93.4188 57.7311C93.0588 58.4511 92.4988 58.9311 91.5188 58.9311C90.5588 58.9311 89.9788 58.4511 89.6188 57.7311C89.2588 56.9711 89.1388 55.9511 89.1388 54.9111ZM85.9788 54.9111C85.9788 56.5111 86.2188 58.1311 87.1188 59.4911C87.9788 60.7711 89.4188 61.7111 91.5188 61.7111C93.6388 61.7111 95.0788 60.7711 95.9388 59.4911C96.8388 58.1311 97.0788 56.5111 97.0788 54.9111C97.0788 53.3111 96.8388 51.6911 95.9388 50.3311C95.0788 49.0311 93.6388 48.1111 91.5188 48.1111C89.4188 48.1111 87.9788 49.0311 87.1188 50.3311C86.2188 51.6911 85.9788 53.3111 85.9788 54.9111ZM98.2166 59.5111C98.2166 60.6111 99.1366 61.5711 100.257 61.5711C101.377 61.5711 102.317 60.6111 102.317 59.5111C102.317 58.3911 101.377 57.4711 100.257 57.4711C99.1366 57.4711 98.2166 58.3911 98.2166 59.5111ZM107.049 54.9111C107.049 53.8711 107.169 52.8511 107.529 52.0911C107.889 51.3711 108.469 50.8911 109.429 50.8911C110.409 50.8911 110.969 51.3711 111.329 52.0911C111.709 52.8511 111.829 53.8711 111.829 54.9111C111.829 55.9511 111.709 56.9711 111.329 57.7311C110.969 58.4511 110.409 58.9311 109.429 58.9311C108.469 58.9311 107.889 58.4511 107.529 57.7311C107.169 56.9711 107.049 55.9511 107.049 54.9111ZM103.889 54.9111C103.889 56.5111 104.129 58.1311 105.029 59.4911C105.889 60.7711 107.329 61.7111 109.429 61.7111C111.549 61.7111 112.989 60.7711 113.849 59.4911C114.749 58.1311 114.989 56.5111 114.989 54.9111C114.989 53.3111 114.749 51.6911 113.849 50.3311C112.989 49.0311 111.549 48.1111 109.429 48.1111C107.329 48.1111 105.889 49.0311 105.029 50.3311C104.129 51.6911 103.889 53.3111 103.889 54.9111ZM119.588 54.9111C119.588 53.8711 119.708 52.8511 120.068 52.0911C120.428 51.3711 121.008 50.8911 121.968 50.8911C122.948 50.8911 123.508 51.3711 123.868 52.0911C124.248 52.8511 124.368 53.8711 124.368 54.9111C124.368 55.9511 124.248 56.9711 123.868 57.7311C123.508 58.4511 122.948 58.9311 121.968 58.9311C121.008 58.9311 120.428 58.4511 120.068 57.7311C119.708 56.9711 119.588 55.9511 119.588 54.9111ZM116.428 54.9111C116.428 56.5111 116.668 58.1311 117.568 59.4911C118.428 60.7711 119.868 61.7111 121.968 61.7111C124.088 61.7111 125.528 60.7711 126.388 59.4911C127.288 58.1311 127.528 56.5111 127.528 54.9111C127.528 53.3111 127.288 51.6911 126.388 50.3311C125.528 49.0311 124.088 48.1111 121.968 48.1111C119.868 48.1111 118.428 49.0311 117.568 50.3311C116.668 51.6911 116.428 53.3111 116.428 54.9111Z" fill="#0A1027"/>
<path d="M30.3715 112.391V99.4311H28.6515C28.3515 100.831 27.1115 101.831 25.3115 101.871V103.251H28.4515V112.391H30.3715ZM37.4223 112.391V99.4311H35.7023C35.4023 100.831 34.1623 101.831 32.3623 101.871V103.251H35.5023V112.391H37.4223ZM44.4731 112.391V99.4311H42.7531C42.4531 100.831 41.2131 101.831 39.4131 101.871V103.251H42.5531V112.391H44.4731ZM51.5239 112.391V99.4311H49.8039C49.5039 100.831 48.2639 101.831 46.4639 101.871V103.251H49.6039V112.391H51.5239ZM60.8346 104.091C60.8146 103.891 60.7946 103.691 60.7946 103.511C60.7946 102.031 61.5946 100.851 63.2946 100.851C64.9346 100.851 65.7346 101.951 65.7346 103.131C65.7346 104.131 65.1746 105.051 63.9546 105.831L61.7946 107.231C59.5946 108.651 58.7546 110.271 58.7146 112.391H67.7946V110.571H61.1346C61.3146 109.771 61.9746 109.231 62.7146 108.751L65.2746 107.111C66.7546 106.171 67.7146 104.811 67.7146 103.111C67.7146 100.951 66.1146 99.1311 63.3346 99.1311C60.4946 99.1311 58.8546 101.111 58.8546 103.331C58.8546 103.491 58.8546 103.671 58.8746 103.851L60.8346 104.091ZM71.4206 104.091C71.4006 103.891 71.3806 103.691 71.3806 103.511C71.3806 102.031 72.1806 100.851 73.8806 100.851C75.5206 100.851 76.3206 101.951 76.3206 103.131C76.3206 104.131 75.7606 105.051 74.5406 105.831L72.3806 107.231C70.1806 108.651 69.3406 110.271 69.3006 112.391H78.3806V110.571H71.7206C71.9006 109.771 72.5606 109.231 73.3006 108.751L75.8606 107.111C77.3406 106.171 78.3006 104.811 78.3006 103.111C78.3006 100.951 76.7006 99.1311 73.9206 99.1311C71.0806 99.1311 69.4406 101.111 69.4406 103.331C69.4406 103.491 69.4406 103.671 69.4606 103.851L71.4206 104.091ZM82.0065 104.091C81.9865 103.891 81.9665 103.691 81.9665 103.511C81.9665 102.031 82.7665 100.851 84.4665 100.851C86.1065 100.851 86.9065 101.951 86.9065 103.131C86.9065 104.131 86.3465 105.051 85.1265 105.831L82.9665 107.231C80.7665 108.651 79.9265 110.271 79.8865 112.391H88.9665V110.571H82.3065C82.4865 109.771 83.1465 109.231 83.8865 108.751L86.4465 107.111C87.9265 106.171 88.8865 104.811 88.8865 103.111C88.8865 100.951 87.2865 99.1311 84.5065 99.1311C81.6665 99.1311 80.0265 101.111 80.0265 103.331C80.0265 103.491 80.0265 103.671 80.0465 103.851L82.0065 104.091ZM92.5925 104.091C92.5725 103.891 92.5525 103.691 92.5525 103.511C92.5525 102.031 93.3525 100.851 95.0525 100.851C96.6925 100.851 97.4925 101.951 97.4925 103.131C97.4925 104.131 96.9325 105.051 95.7125 105.831L93.5525 107.231C91.3525 108.651 90.5125 110.271 90.4725 112.391H99.5525V110.571H92.8925C93.0725 109.771 93.7325 109.231 94.4725 108.751L97.0325 107.111C98.5125 106.171 99.4725 104.811 99.4725 103.111C99.4725 100.951 97.8725 99.1311 95.0925 99.1311C92.2525 99.1311 90.6125 101.111 90.6125 103.331C90.6125 103.491 90.6125 103.671 90.6325 103.851L92.5925 104.091ZM109.858 106.371C110.198 106.251 110.598 106.171 110.998 106.171C112.278 106.171 113.638 106.891 113.638 108.591C113.638 109.891 112.678 110.991 110.898 110.991C109.338 110.991 108.098 109.911 108.018 108.191L106.098 108.631C106.218 110.751 107.918 112.711 110.918 112.711C113.938 112.711 115.618 110.731 115.618 108.551C115.618 105.891 113.518 104.611 111.618 104.611L115.318 101.191V99.4311H106.518V101.231H112.718L108.898 104.751L109.858 106.371ZM120.913 106.371C121.253 106.251 121.653 106.171 122.053 106.171C123.333 106.171 124.693 106.891 124.693 108.591C124.693 109.891 123.733 110.991 121.953 110.991C120.393 110.991 119.153 109.911 119.073 108.191L117.153 108.631C117.273 110.751 118.973 112.711 121.973 112.711C124.993 112.711 126.673 110.731 126.673 108.551C126.673 105.891 124.573 104.611 122.673 104.611L126.373 101.191V99.4311H117.573V101.231H123.773L119.953 104.751L120.913 106.371ZM131.968 106.371C132.308 106.251 132.708 106.171 133.108 106.171C134.388 106.171 135.748 106.891 135.748 108.591C135.748 109.891 134.788 110.991 133.008 110.991C131.448 110.991 130.208 109.911 130.128 108.191L128.208 108.631C128.328 110.751 130.028 112.711 133.028 112.711C136.048 112.711 137.728 110.731 137.728 108.551C137.728 105.891 135.628 104.611 133.728 104.611L137.428 101.191V99.4311H128.628V101.231H134.828L131.008 104.751L131.968 106.371ZM143.022 106.371C143.362 106.251 143.762 106.171 144.162 106.171C145.442 106.171 146.802 106.891 146.802 108.591C146.802 109.891 145.842 110.991 144.062 110.991C142.502 110.991 141.262 109.911 141.182 108.191L139.262 108.631C139.382 110.751 141.082 112.711 144.082 112.711C147.102 112.711 148.782 110.731 148.782 108.551C148.782 105.891 146.682 104.611 144.782 104.611L148.482 101.191V99.4311H139.682V101.231H145.882L142.062 104.751L143.022 106.371ZM155.277 109.471H161.637V112.391H163.537V109.471H165.757V107.651H163.537V99.4311H160.837L155.277 107.211V109.471ZM161.637 107.651H157.077L161.637 101.311V107.651ZM166.762 109.471H173.122V112.391H175.022V109.471H177.242V107.651H175.022V99.4311H172.322L166.762 107.211V109.471ZM173.122 107.651H168.562L173.122 101.311V107.651ZM178.246 109.471H184.606V112.391H186.506V109.471H188.726V107.651H186.506V99.4311H183.806L178.246 107.211V109.471ZM184.606 107.651H180.046L184.606 101.311V107.651ZM189.73 109.471H196.09V112.391H197.99V109.471H200.21V107.651H197.99V99.4311H195.29L189.73 107.211V109.471ZM196.09 107.651H191.53L196.09 101.311V107.651Z" fill="#0A1027"/>
<path opacity="0.28" d="M26.3136 26.7496L24.0284 24.3717C23.1288 25.3922 22.7879 26.4146 22.782 26.4355L22.7192 26.6301L22.7814 26.8247C22.7944 26.866 24.1521 30.9412 28.6698 30.9412C29.2197 30.9412 29.7204 30.8784 30.1803 30.7731L28.555 29.0819C27.9698 29.0521 27.4162 28.7967 27.0019 28.3657C26.5877 27.9346 26.3423 27.3585 26.3136 26.7496ZM28.6698 22.319C27.5719 22.319 26.6723 22.5678 25.9224 22.9337L23.7295 20.6519L22.8927 21.5227L33.5462 32.6084L34.3831 31.7375L32.4311 29.7064C33.9924 28.5036 34.5494 26.8506 34.5577 26.8247L34.6198 26.6301L34.5577 26.4355C34.5447 26.3942 33.1875 22.319 28.6698 22.319ZM29.7979 26.9664C29.9086 26.5494 29.8145 26.0801 29.5067 25.7593C29.199 25.4384 28.7474 25.3411 28.3467 25.4563L27.4541 24.5275C27.8199 24.2935 28.2405 24.1686 28.6698 24.1666C29.9755 24.1666 31.0373 25.2715 31.0373 26.6301C31.0355 27.0768 30.9153 27.5144 30.6899 27.8945L29.7979 26.9664Z" fill="#0A1027"/>
<path opacity="0.28" d="M45.5193 32.4542C47.1493 32.4542 48.2693 31.5042 48.6493 30.1742L47.7793 29.8542C47.4893 30.8242 46.7293 31.5542 45.5193 31.5542C44.2293 31.5542 42.9993 30.6042 42.9993 28.7542C42.9993 26.9042 44.2293 25.9642 45.5193 25.9642C46.6793 25.9642 47.4593 26.5642 47.7293 27.6342L48.6393 27.3142C48.2793 25.9442 47.1393 25.0642 45.5193 25.0642C43.7593 25.0642 41.9993 26.3842 41.9993 28.7542C41.9993 31.1242 43.6893 32.4542 45.5193 32.4542ZM52.824 31.7242C52.824 31.9242 52.844 32.1942 52.864 32.3042H53.764C53.744 32.1342 53.714 31.7942 53.714 31.4142V27.4942H52.774V30.3942C52.774 31.1242 52.394 31.6242 51.634 31.6242C50.844 31.6242 50.544 31.0442 50.544 30.3842V27.4942H49.604V30.5242C49.604 31.6142 50.284 32.4542 51.404 32.4542C51.964 32.4542 52.564 32.2242 52.824 31.7242ZM57.9881 27.4442C57.9381 27.4342 57.8081 27.4142 57.6781 27.4142C57.1881 27.4142 56.5881 27.5942 56.2381 28.3342V27.4942H55.3181V32.3042H56.2581V29.8942C56.2581 28.8342 56.7881 28.4142 57.5781 28.4142C57.7081 28.4142 57.8481 28.4242 57.9881 28.4442V27.4442ZM61.6599 27.4442C61.6099 27.4342 61.4799 27.4142 61.3499 27.4142C60.8599 27.4142 60.2599 27.5942 59.9099 28.3342V27.4942H58.9899V32.3042H59.9299V29.8942C59.9299 28.8342 60.4599 28.4142 61.2499 28.4142C61.3799 28.4142 61.5199 28.4242 61.6599 28.4442V27.4442ZM63.223 29.4042C63.263 28.7842 63.743 28.1742 64.533 28.1742C65.383 28.1742 65.833 28.7142 65.853 29.4042H63.223ZM65.993 30.6542C65.813 31.1942 65.423 31.6242 64.643 31.6242C63.833 31.6242 63.213 31.0242 63.193 30.1642H66.813C66.823 30.1042 66.833 29.9842 66.833 29.8642C66.833 28.3642 66.003 27.3442 64.523 27.3442C63.313 27.3442 62.223 28.3742 62.223 29.8842C62.223 31.5142 63.353 32.4542 64.643 32.4542C65.763 32.4542 66.533 31.7842 66.803 30.9342L65.993 30.6542ZM68.9729 29.5242C68.9729 28.7942 69.3529 28.2042 70.0929 28.2042C70.9329 28.2042 71.2129 28.7442 71.2129 29.4142V32.3042H72.1529V29.2542C72.1529 28.1842 71.5829 27.3542 70.4329 27.3542C69.8729 27.3542 69.3029 27.5842 68.9529 28.1842V27.4942H68.0329V32.3042H68.9729V29.5242ZM74.9081 25.9742H74.0481V26.7542C74.0481 27.1742 73.8281 27.4942 73.3081 27.4942H73.0481V28.3442H73.9681V30.9842C73.9681 31.8542 74.4881 32.3542 75.3081 32.3542C75.6281 32.3542 75.8681 32.2942 75.9481 32.2642V31.4642C75.8681 31.4842 75.6981 31.5042 75.5781 31.5042C75.0881 31.5042 74.9081 31.2842 74.9081 30.8442V28.3442H75.9481V27.4942H74.9081V25.9742ZM79.8028 25.2142V32.3042H82.2828C83.5828 32.3042 84.4728 31.4942 84.4728 30.3742C84.4728 29.5842 84.0028 28.8642 83.1928 28.6642C83.8128 28.4342 84.2528 27.8942 84.2528 27.1342C84.2528 26.0142 83.4628 25.2142 82.1128 25.2142H79.8028ZM80.7828 28.3142V26.0742H81.9628C82.7728 26.0742 83.2628 26.5142 83.2628 27.1842C83.2628 27.8442 82.7928 28.3142 82.0028 28.3142H80.7828ZM80.7828 31.4442V29.1542H82.1828C83.0428 29.1542 83.4728 29.6342 83.4728 30.3142C83.4728 31.0042 82.9328 31.4442 82.1428 31.4442H80.7828ZM85.3208 31.0142C85.3208 31.7742 85.9508 32.4542 86.9308 32.4542C87.7908 32.4542 88.2708 31.9942 88.4808 31.6542C88.4808 32.0042 88.5108 32.1842 88.5308 32.3042H89.4508C89.4308 32.1842 89.3908 31.9342 89.3908 31.5142V29.1042C89.3908 28.1642 88.8308 27.3442 87.3908 27.3442C86.3508 27.3442 85.5208 27.9842 85.4208 28.9042L86.3208 29.1142C86.3808 28.5542 86.7508 28.1442 87.4108 28.1442C88.1408 28.1442 88.4508 28.5342 88.4508 29.0042C88.4508 29.1742 88.3708 29.3242 88.0808 29.3642L86.7808 29.5542C85.9508 29.6742 85.3208 30.1542 85.3208 31.0142ZM87.0608 31.6642C86.5808 31.6642 86.2808 31.3242 86.2808 30.9642C86.2808 30.5342 86.5808 30.3042 86.9808 30.2442L88.4508 30.0242V30.2442C88.4508 31.2942 87.8308 31.6642 87.0608 31.6642ZM91.7952 32.3042V25.0642H90.8552V32.3042H91.7952ZM93.0942 31.0142C93.0942 31.7742 93.7242 32.4542 94.7042 32.4542C95.5642 32.4542 96.0442 31.9942 96.2542 31.6542C96.2542 32.0042 96.2842 32.1842 96.3042 32.3042H97.2242C97.2042 32.1842 97.1642 31.9342 97.1642 31.5142V29.1042C97.1642 28.1642 96.6042 27.3442 95.1642 27.3442C94.1242 27.3442 93.2942 27.9842 93.1942 28.9042L94.0942 29.1142C94.1542 28.5542 94.5242 28.1442 95.1842 28.1442C95.9142 28.1442 96.2242 28.5342 96.2242 29.0042C96.2242 29.1742 96.1442 29.3242 95.8542 29.3642L94.5542 29.5542C93.7242 29.6742 93.0942 30.1542 93.0942 31.0142ZM94.8342 31.6642C94.3542 31.6642 94.0542 31.3242 94.0542 30.9642C94.0542 30.5342 94.3542 30.3042 94.7542 30.2442L96.2242 30.0242V30.2442C96.2242 31.2942 95.6042 31.6642 94.8342 31.6642ZM99.5686 29.5242C99.5686 28.7942 99.9486 28.2042 100.689 28.2042C101.529 28.2042 101.809 28.7442 101.809 29.4142V32.3042H102.749V29.2542C102.749 28.1842 102.179 27.3542 101.029 27.3542C100.469 27.3542 99.8986 27.5842 99.5486 28.1842V27.4942H98.6286V32.3042H99.5686V29.5242ZM106.264 28.2142C107.084 28.2142 107.434 28.7642 107.554 29.2342L108.404 28.8742C108.204 28.1442 107.544 27.3442 106.264 27.3442C104.894 27.3442 103.844 28.3942 103.844 29.8942C103.844 31.3542 104.874 32.4542 106.274 32.4542C107.524 32.4542 108.214 31.6442 108.444 30.9542L107.614 30.5942C107.504 30.9742 107.174 31.5842 106.274 31.5842C105.494 31.5842 104.804 30.9942 104.804 29.8942C104.804 28.7742 105.504 28.2142 106.264 28.2142ZM110.108 29.4042C110.148 28.7842 110.628 28.1742 111.418 28.1742C112.268 28.1742 112.718 28.7142 112.738 29.4042H110.108ZM112.878 30.6542C112.698 31.1942 112.308 31.6242 111.528 31.6242C110.718 31.6242 110.098 31.0242 110.078 30.1642H113.698C113.708 30.1042 113.718 29.9842 113.718 29.8642C113.718 28.3642 112.888 27.3442 111.408 27.3442C110.198 27.3442 109.108 28.3742 109.108 29.8842C109.108 31.5142 110.238 32.4542 111.528 32.4542C112.648 32.4542 113.418 31.7842 113.688 30.9342L112.878 30.6542Z" fill="#0A1027"/>
<path d="M316.518 55.7319H323.449V56.3739C323.449 57.3012 322.678 58.0553 321.73 58.0553H318.237C317.289 58.0553 316.518 57.3012 316.518 56.3739V55.7319Z" fill="url(#paint0_linear_3395_831)"/>
<path opacity="0.16" d="M318.022 55.7373H322.14V56.1177C322.14 56.668 321.682 57.1164 321.12 57.1164H319.043C318.48 57.1164 318.022 56.668 318.022 56.1177V55.7373Z" fill="#0A1027"/>
<path d="M317.192 59.0542H322.974V59.5875C322.974 60.3619 322.331 60.9903 321.54 60.9903H318.626C317.834 60.9903 317.192 60.3619 317.192 59.5875V59.0542Z" fill="url(#paint1_linear_3395_831)"/>
<path opacity="0.16" d="M318.446 59.0566H321.88V59.3725C321.88 59.8311 321.498 60.2047 321.029 60.2047H319.297C318.828 60.2047 318.446 59.8311 318.446 59.3725V59.0566Z" fill="#0A1027"/>
<path d="M326.415 48.7179C326.415 49.3633 326.415 50.0053 326.419 50.6507V52.8416C328.117 52.8348 329.815 52.828 331.513 52.8246C331.673 52.8246 331.919 52.8008 332.183 52.6785C332.527 52.5189 332.718 52.2675 332.815 52.1316C333.503 51.2009 333.898 50.3382 333.898 50.3382C334.214 49.652 334.572 48.9795 334.899 48.2968C335.267 47.5189 335.416 47.2302 335.944 46.133C336.26 45.4741 336.722 44.5298 337.309 43.3613" fill="white" fill-opacity="0.5"/>
<path d="M325.683 41.1674C325.846 41.2795 326.645 40.5186 328.075 38.8848V39.7917L326.499 41.5546C326.471 43.664 326.443 45.7734 326.415 47.8861C326.426 47.8929 328.686 48.8066 329.398 48.9595C330.228 49.1395 330.819 49.1667 331.395 48.9323C331.774 48.7794 332.017 48.5655 332.128 48.4636C332.888 47.774 334.76 45.899 337.333 43.3447C338.253 41.6565 339.17 39.9684 340.09 38.2802C340.243 37.927 340.747 36.6566 340.174 35.3624C340.021 35.0228 339.826 34.7476 339.639 34.537C337.819 32.8115 335.968 31.0011 334.149 29.2755C333.402 29.2484 331.954 29.3876 330.523 30.2708C329.766 30.7361 328.818 31.0554 328.075 32.251C328.061 32.2714 327.843 32.4141 327.832 32.4345C326.193 35.1077 325.877 38.2225 325.693 40.2333C325.644 40.8108 325.596 41.1097 325.683 41.1674Z" fill="#0A1027"/>
<path d="M326.415 47.7838L326.492 47.8144C327.325 48.1099 328.082 48.3511 328.836 48.6534C329.086 48.7485 329.534 48.8912 329.999 48.9251C330.252 48.9455 330.596 49.0508 331.093 48.8946C331.589 48.7383 331.943 48.4904 332.044 48.4054C332.291 48.2016 332.902 47.6038 333.409 47.1215C334.031 46.5305 334.683 45.8953 335.277 45.2805C335.718 44.8253 336.413 44.146 337.305 43.3613C336.218 44.6181 335.395 45.6847 334.847 46.4252C333.464 48.2934 332.992 49.2003 331.676 49.9102C330.634 50.4707 329.787 50.5216 329.443 50.525C329.304 50.525 328.495 50.525 327.634 50.131C327.311 49.9815 327.096 49.8321 326.94 49.6962C326.818 49.5909 326.728 49.489 326.676 49.4313C326.596 49.3395 326.519 49.2546 326.412 49.0576C326.405 49.0474 326.419 49.0169 326.412 48.9999V47.7805L326.415 47.7838Z" fill="url(#paint2_linear_3395_831)"/>
<path d="M313.695 48.6677C313.695 49.313 313.695 49.955 313.692 50.6004V52.7913C311.994 52.7845 310.296 52.7777 308.598 52.7743C308.438 52.7743 308.191 52.7505 307.927 52.6282C307.584 52.4686 307.393 52.2172 307.295 52.0813C306.608 51.1506 306.212 50.2879 306.212 50.2879C305.896 49.6017 305.538 48.9292 305.212 48.2465C304.844 47.4686 304.694 47.1799 304.166 46.0828C303.85 45.4238 303.389 44.4795 302.802 43.311" fill="white" fill-opacity="0.5"/>
<path d="M314.428 41.113C314.265 41.2251 313.466 40.4642 312.035 38.8304V39.7373L313.612 41.5002C313.639 43.6096 313.667 45.7189 313.695 47.8317C313.685 47.8385 311.424 48.7522 310.712 48.905C309.882 49.0851 309.292 49.1122 308.715 48.8779C308.337 48.725 308.094 48.511 307.983 48.4091C307.222 47.7196 305.35 45.8446 302.777 43.2903C301.857 41.6021 300.94 39.9139 300.02 38.2258C299.867 37.8725 299.364 36.6021 299.937 35.308C300.089 34.9683 300.284 34.6932 300.471 34.4826C302.291 32.7571 304.177 30.8379 305.996 29.1124C306.364 29.0988 307.052 28.8916 307.667 29.058C308.281 29.2245 308.861 29.7714 309.584 30.2163C310.354 30.6885 311.021 31.3474 311.778 32.5838C313.417 35.257 314.23 38.168 314.414 40.1789C314.462 40.7563 314.511 41.0552 314.424 41.113H314.428Z" fill="#0A1027"/>
<path d="M313.695 47.7296L313.619 47.7602C312.785 48.0557 312.028 48.2969 311.275 48.5992C311.025 48.6943 310.577 48.837 310.111 48.8709C309.858 48.8913 309.514 48.9966 309.018 48.8404C308.521 48.6841 308.167 48.4362 308.066 48.3512C307.82 48.1474 307.208 47.5496 306.701 47.0673C306.08 46.4763 305.427 45.8411 304.833 45.2263C304.392 44.7711 303.698 44.0918 302.805 43.3071C303.892 44.5639 304.715 45.6305 305.264 46.371C306.646 48.2392 307.118 49.1461 308.434 49.856C309.476 50.4164 310.323 50.4674 310.667 50.4708C310.806 50.4708 311.615 50.4708 312.476 50.0768C312.799 49.9273 313.015 49.7779 313.171 49.642C313.292 49.5367 313.383 49.4348 313.435 49.3771C313.515 49.2853 313.591 49.2004 313.699 49.0034C313.706 48.9932 313.692 48.9627 313.699 48.9457V47.7263L313.695 47.7296Z" fill="url(#paint3_linear_3395_831)"/>
<path d="M322.297 54.7437H317.609C317.449 54.6588 317.265 54.5365 317.085 54.3599C316.591 53.8775 316.453 53.3035 316.411 53.0385C315.647 48.6058 314.886 44.1697 314.122 39.737C313.754 37.8145 313.227 36.2825 312.789 35.2058C312.223 33.8097 311.692 32.5292 310.501 31.1875C309.094 29.608 307.969 29.2921 307.611 29.2072C306.955 29.0509 306.382 29.0713 305.997 29.1155C306.229 28.7622 306.851 27.9232 308.004 27.4647C309.125 27.0197 310.112 27.1895 310.705 27.2982C312.445 27.6209 313.567 28.6501 314.025 29.1325C315.195 30.2228 316.171 30.9055 316.821 31.3165C316.887 31.3573 317.091 31.4864 317.366 31.646C318.512 32.3152 319.175 32.7024 319.804 32.8009C320.078 32.8451 321.099 32.9504 322.45 31.8295C323.839 30.7153 325.224 29.6046 326.613 28.4905C327.04 28.127 327.853 27.5428 329.013 27.3356C329.409 27.2643 329.773 27.2507 330.082 27.2609C330.638 27.2745 331.478 27.3764 332.371 27.8111C332.701 27.9708 332.982 28.1508 333.215 28.324C333.531 28.6467 333.85 28.9694 334.166 29.2921C333.548 29.2819 332.461 29.3498 331.267 29.8831C330.982 30.0122 330.013 30.4708 329.086 31.4524C328.586 31.9823 328.256 32.4986 328.044 32.8824C327.624 33.6195 327.179 34.5163 326.79 35.5658C326.419 36.5713 326.176 37.502 326.016 38.3036C325.891 38.9082 325.78 39.5536 325.686 40.2295C325.624 40.6847 325.575 41.1229 325.537 41.5508C325.335 43.1371 325.134 44.7234 324.933 46.313C324.568 47.8959 324.2 49.4788 323.835 51.0616C323.741 51.8123 323.648 52.5664 323.554 53.3171C323.54 53.4393 323.502 53.6296 323.384 53.8266C323.155 54.2104 322.957 54.5161 322.835 54.5603" fill="#0A1027"/>
<path opacity="0.1" d="M321.797 51.6285H318.164C318.043 51.564 317.897 51.4655 317.758 51.3296C317.376 50.9559 317.268 50.511 317.234 50.3072C316.643 46.8731 316.053 43.4424 315.463 40.0083C315.178 38.5206 314.768 37.3351 314.431 36.4995C313.994 35.4194 313.581 34.4275 312.66 33.3881C311.573 32.1653 310.702 31.9208 310.424 31.8528C309.917 31.7305 309.472 31.7475 309.174 31.7815C309.354 31.5098 309.834 30.8576 310.726 30.5043C311.594 30.1613 312.358 30.2903 312.817 30.3753C314.164 30.6232 315.032 31.4214 315.386 31.7951C316.293 32.6375 317.05 33.1674 317.55 33.4866C317.602 33.5206 317.758 33.6191 317.97 33.7414C318.859 34.2611 319.369 34.56 319.859 34.6347C320.071 34.6687 320.863 34.7502 321.908 33.8807C322.981 33.0179 324.057 32.1585 325.13 31.2958C325.46 31.0138 326.092 30.5621 326.988 30.4024C327.297 30.3481 327.575 30.3345 327.815 30.3447C328.245 30.3549 328.895 30.433 329.586 30.7693C329.843 30.895 330.058 31.0342 330.239 31.1667C330.485 31.418 330.728 31.666 330.975 31.9174C330.495 31.9106 329.655 31.9615 328.731 32.3759C328.509 32.4744 327.759 32.8311 327.044 33.5919C326.655 34.0029 326.401 34.4038 326.238 34.6993C325.912 35.2699 325.568 35.9628 325.269 36.7781C324.981 37.5559 324.794 38.276 324.668 38.8976C324.571 39.3664 324.484 39.8657 324.415 40.3888C324.366 40.742 324.328 41.0817 324.3 41.4112C324.144 42.6408 323.988 43.8704 323.832 45.0966C323.547 46.3228 323.266 47.5456 322.981 48.7719C322.908 49.3527 322.835 49.9369 322.762 50.5178C322.752 50.6129 322.72 50.7589 322.63 50.9118C322.453 51.2107 322.168 51.3262 322.074 51.3602" fill="url(#paint4_linear_3395_831)"/>
<defs>
<linearGradient id="paint0_linear_3395_831" x1="319.963" y1="58.1979" x2="319.986" y2="55.827" gradientUnits="userSpaceOnUse">
<stop stop-color="white" stop-opacity="0.5"/>
<stop offset="1" stop-color="white"/>
</linearGradient>
<linearGradient id="paint1_linear_3395_831" x1="320.06" y1="61.1092" x2="320.084" y2="59.1323" gradientUnits="userSpaceOnUse">
<stop stop-color="#5547D7" stop-opacity="0.1"/>
<stop offset="1" stop-color="#5547D7"/>
</linearGradient>
<linearGradient id="paint2_linear_3395_831" x1="326.412" y1="46.9449" x2="337.309" y2="46.9449" gradientUnits="userSpaceOnUse">
<stop stop-color="#5547D7" stop-opacity="0.1"/>
<stop offset="1" stop-color="white"/>
</linearGradient>
<linearGradient id="paint3_linear_3395_831" x1="313.695" y1="46.8907" x2="302.802" y2="46.8907" gradientUnits="userSpaceOnUse">
<stop stop-color="#5547D7" stop-opacity="0.1"/>
<stop offset="1" stop-color="#5547D7"/>
</linearGradient>
<linearGradient id="paint4_linear_3395_831" x1="319.855" y1="52.7766" x2="320.075" y2="31.4451" gradientUnits="userSpaceOnUse">
<stop stop-color="white" stop-opacity="0.2"/>
<stop offset="1" stop-color="white"/>
</linearGradient>
</defs>
</svg>
